<svg width="189" height="89" viewBox="0 0 189 89" fill="none" xmlns="http://www.w3.org/2000/svg">
<mask id="path-1-outside-1_5819_1245" maskUnits="userSpaceOnUse" x="0" y="0" width="189" height="89" fill="black">
<rect fill="white" width="189" height="89"/>
<path d="M14.628 1C21.6098 1 26.958 2.25315 30.6727 4.75944C34.3874 7.22098 36.2448 11.0699 36.2448 16.3063C36.2448 19.5734 35.4839 22.2364 33.9622 24.2951C32.4853 26.3091 30.3371 27.8979 27.5175 29.0615C28.4573 30.2252 29.442 31.5678 30.4713 33.0895C31.5007 34.5664 32.5077 36.1329 33.4923 37.7888C34.5217 39.4 35.5063 41.1007 36.4462 42.8909C37.386 44.6364 38.2587 46.3594 39.0643 48.0601H27.3161C26.4657 46.5385 25.593 44.9944 24.6979 43.428C23.8476 41.8615 22.9524 40.3399 22.0126 38.8629C21.1175 37.386 20.2224 35.9986 19.3273 34.7007C18.4322 33.358 17.5371 32.1496 16.642 31.0755H11.4727V48.0601H1V2.20839C3.28252 1.76084 5.63217 1.44755 8.04895 1.26853C10.5105 1.08951 12.7035 1 14.628 1ZM15.2322 9.92867C14.4713 9.92867 13.7776 9.95105 13.151 9.9958C12.5692 10.0406 12.0098 10.0853 11.4727 10.1301V22.751H14.4266C18.365 22.751 21.1846 22.2587 22.8853 21.2741C24.586 20.2895 25.4364 18.6112 25.4364 16.2392C25.4364 13.9566 24.5636 12.3455 22.8182 11.4056C21.1175 10.421 18.5888 9.92867 15.2322 9.92867Z"/>
<path d="M41.7229 30.6727C41.7229 27.5399 42.1928 24.8098 43.1327 22.4825C44.1173 20.1105 45.3928 18.1413 46.9593 16.5748C48.5257 15.0084 50.3159 13.8224 52.3299 13.0168C54.3886 12.2112 56.4921 11.8084 58.6404 11.8084C63.653 11.8084 67.6138 13.3524 70.5229 16.4406C73.432 19.4839 74.8865 23.9818 74.8865 29.9343C74.8865 30.5161 74.8642 31.165 74.8194 31.8811C74.7747 32.5524 74.7299 33.1566 74.6851 33.6937H51.9942C52.218 35.7524 53.1802 37.386 54.8809 38.5944C56.5816 39.8028 58.8642 40.407 61.7285 40.407C63.5635 40.407 65.3537 40.2503 67.0991 39.9371C68.8893 39.579 70.3439 39.1538 71.4628 38.6615L72.8054 46.7846C72.2684 47.0531 71.5523 47.3217 70.6572 47.5902C69.7621 47.8587 68.7551 48.0825 67.6362 48.2615C66.5621 48.4853 65.3984 48.6643 64.1453 48.7986C62.8921 48.9329 61.639 49 60.3858 49C57.2082 49 54.4334 48.5301 52.0614 47.5902C49.7341 46.6504 47.7872 45.3748 46.2208 43.7636C44.6991 42.1077 43.5579 40.1608 42.797 37.9231C42.0809 35.6853 41.7229 33.2685 41.7229 30.6727ZM65.2194 26.8462C65.1747 25.9958 65.018 25.1678 64.7495 24.3622C64.5257 23.5566 64.1453 22.8406 63.6082 22.214C63.1159 21.5874 62.467 21.0727 61.6614 20.6699C60.9005 20.2671 59.9383 20.0657 58.7747 20.0657C57.6558 20.0657 56.6935 20.2671 55.8879 20.6699C55.0823 21.028 54.411 21.5203 53.8739 22.1469C53.3369 22.7734 52.9117 23.5119 52.5984 24.3622C52.3299 25.1678 52.1285 25.9958 51.9942 26.8462H65.2194Z"/>
<path d="M96.0995 41.0783C97.0841 41.0783 98.024 41.0559 98.9191 41.0112C99.8142 40.9664 100.53 40.8993 101.067 40.8098V33.2238C100.665 33.1343 100.06 33.0448 99.2547 32.9552C98.4491 32.8657 97.7107 32.821 97.0393 32.821C96.0995 32.821 95.2044 32.8881 94.354 33.0224C93.5484 33.1119 92.8324 33.3133 92.2058 33.6266C91.5792 33.9399 91.0869 34.365 90.7289 34.9021C90.3708 35.4392 90.1918 36.1105 90.1918 36.9161C90.1918 38.4825 90.7065 39.579 91.7358 40.2056C92.81 40.7874 94.2645 41.0783 96.0995 41.0783ZM95.2939 11.8084C98.2477 11.8084 100.709 12.1441 102.678 12.8154C104.648 13.4867 106.214 14.4489 107.378 15.7021C108.586 16.9552 109.437 18.4769 109.929 20.2671C110.421 22.0573 110.667 24.0489 110.667 26.242V47.0531C109.235 47.3664 107.244 47.7245 104.692 48.1273C102.141 48.5748 99.0533 48.7986 95.4281 48.7986C93.1456 48.7986 91.0645 48.5972 89.1848 48.1944C87.3498 47.7916 85.761 47.1427 84.4184 46.2476C83.0757 45.3077 82.0463 44.0993 81.3302 42.6224C80.6142 41.1455 80.2561 39.3329 80.2561 37.1846C80.2561 35.1259 80.6589 33.3804 81.4645 31.9482C82.3149 30.5161 83.4337 29.3748 84.8212 28.5245C86.2086 27.6741 87.7974 27.0699 89.5876 26.7119C91.3778 26.3091 93.2351 26.1077 95.1596 26.1077C96.4575 26.1077 97.5988 26.1748 98.5834 26.3091C99.6128 26.3986 100.441 26.5329 101.067 26.7119V25.772C101.067 24.0713 100.553 22.7063 99.5233 21.6769C98.4939 20.6476 96.7037 20.1329 94.1526 20.1329C92.4519 20.1329 90.7736 20.2671 89.1177 20.5357C87.4617 20.7594 86.0295 21.0951 84.8212 21.5427L83.5456 13.4867C84.1274 13.3077 84.8435 13.1287 85.6939 12.9497C86.589 12.7259 87.5512 12.5469 88.5806 12.4126C89.61 12.2336 90.6841 12.0993 91.803 12.0098C92.9666 11.8755 94.1302 11.8084 95.2939 11.8084Z"/>
<path d="M118.034 30.4042C118.034 27.8531 118.437 25.4587 119.242 23.221C120.093 20.9385 121.301 18.9692 122.868 17.3133C124.434 15.6126 126.336 14.2699 128.574 13.2853C130.812 12.3007 133.363 11.8084 136.227 11.8084C138.107 11.8084 139.83 11.9874 141.396 12.3455C142.963 12.6587 144.484 13.1287 145.961 13.7552L143.88 21.7441C142.94 21.386 141.911 21.0727 140.792 20.8042C139.673 20.5357 138.42 20.4014 137.033 20.4014C134.079 20.4014 131.863 21.3189 130.387 23.1538C128.954 24.9888 128.238 27.4056 128.238 30.4042C128.238 33.5818 128.91 36.0434 130.252 37.7888C131.64 39.5343 134.034 40.407 137.435 40.407C138.644 40.407 139.942 40.2951 141.329 40.0713C142.717 39.8475 143.992 39.4895 145.156 38.9972L146.566 47.1874C145.402 47.6797 143.947 48.1049 142.202 48.4629C140.456 48.821 138.532 49 136.428 49C133.206 49 130.431 48.5301 128.104 47.5902C125.777 46.6056 123.852 45.2853 122.331 43.6294C120.854 41.9734 119.757 40.0266 119.041 37.7888C118.37 35.5063 118.034 33.0448 118.034 30.4042Z"/>
<path d="M152.943 3.95385L162.946 2.34265V12.7483H174.963V21.0727H162.946V33.4923C162.946 35.5958 163.304 37.2741 164.02 38.5273C164.781 39.7804 166.28 40.407 168.518 40.407C169.592 40.407 170.689 40.3175 171.808 40.1385C172.971 39.9147 174.023 39.6238 174.963 39.2657L176.373 47.0531C175.164 47.5455 173.822 47.9706 172.345 48.3287C170.868 48.6867 169.055 48.8657 166.907 48.8657C164.177 48.8657 161.917 48.5077 160.126 47.7916C158.336 47.0308 156.904 46.0014 155.83 44.7035C154.756 43.3608 153.995 41.7496 153.547 39.8699C153.145 37.9902 152.943 35.9091 152.943 33.6266V3.95385Z"/>
<path d="M153.847 79.8904C152.409 79.8904 151.255 79.569 150.384 78.9263C149.533 78.2836 148.918 77.4234 148.539 76.3459C148.18 75.2684 148 74.087 148 72.8015C148 71.8185 148.104 70.845 148.312 69.8809C148.539 68.9168 148.851 67.9811 149.249 67.0737C149.533 66.3932 149.93 65.6465 150.441 64.8336C150.952 64.0208 151.538 63.2174 152.201 62.4234C152.863 61.6106 153.572 60.8733 154.329 60.2117C155.105 59.5501 155.909 59.0208 156.742 58.6238C157.574 58.2079 158.407 58 159.239 58C160.242 58 161.018 58.3119 161.567 58.9357C162.134 59.5595 162.418 60.3535 162.418 61.3176C162.418 62.0737 162.248 62.8771 161.907 63.7278C161.586 64.5784 161.141 65.3819 160.573 66.138C160.006 66.8752 159.344 67.4801 158.587 67.9527C157.849 68.4253 157.063 68.6616 156.231 68.6616C155.701 68.6616 155.294 68.5104 155.01 68.2079C154.727 67.9055 154.585 67.4896 154.585 66.9603C154.585 66.828 154.613 66.6011 154.67 66.2798C154.727 65.9584 154.812 65.6276 154.925 65.2873C155.039 64.9282 155.162 64.6257 155.294 64.38C155.427 64.1153 155.559 63.983 155.692 63.983C155.767 63.983 155.815 64.0208 155.834 64.0964C155.852 64.1531 155.862 64.2098 155.862 64.2665C155.862 64.6824 155.748 65.0983 155.521 65.5142C155.294 65.9301 155.181 66.3837 155.181 66.8752C155.181 67.2533 155.285 67.5652 155.493 67.811C155.701 68.0567 156.004 68.1796 156.401 68.1796C157.12 68.1796 157.792 67.9622 158.416 67.5274C159.06 67.0737 159.627 66.4972 160.119 65.7977C160.611 65.0983 160.999 64.3705 161.283 63.6144C161.567 62.8393 161.709 62.1304 161.709 61.4877C161.709 60.7316 161.472 60.1077 160.999 59.6163C160.545 59.1059 159.93 58.8507 159.154 58.8507C158.397 58.8507 157.631 59.0492 156.855 59.4461C156.098 59.8242 155.361 60.3346 154.641 60.9773C153.941 61.6011 153.279 62.2911 152.655 63.0473C152.049 63.8034 151.519 64.569 151.065 65.344C150.611 66.1002 150.252 66.7996 149.987 67.4423C149.627 68.293 149.343 69.172 149.135 70.0794C148.946 70.9679 148.851 71.8752 148.851 72.8015C148.851 73.8979 149.003 74.9282 149.306 75.8923C149.627 76.8374 150.157 77.603 150.895 78.189C151.633 78.7561 152.626 79.0397 153.875 79.0397H154.159C155.029 79.0397 155.9 78.7845 156.77 78.2741C157.641 77.7448 158.473 77.0737 159.268 76.2609C160.063 75.448 160.772 74.6163 161.397 73.7656C162.04 72.896 162.57 72.121 162.986 71.4405C163.251 71.0057 163.478 70.5709 163.667 70.1361C163.875 69.6824 164.093 69.2382 164.32 68.8034C164.358 68.7467 164.405 68.6805 164.462 68.6049C164.519 68.5293 164.585 68.4915 164.661 68.4915C164.698 68.6049 164.717 68.6994 164.717 68.775C164.717 68.8885 164.698 68.983 164.661 69.0586C164.415 69.8147 164.027 70.6654 163.497 71.6106C162.967 72.5558 162.333 73.5104 161.595 74.4745C160.857 75.4386 160.053 76.3365 159.183 77.1682C158.331 77.9811 157.442 78.6333 156.515 79.1248C155.606 79.6352 154.717 79.8904 153.847 79.8904Z"/>
<path d="M166.875 78.7845C166.515 78.7845 166.213 78.6522 165.967 78.3875C165.74 78.1229 165.56 77.8015 165.427 77.4234C165.295 77.0265 165.2 76.6295 165.144 76.2325C165.106 75.8355 165.087 75.5047 165.087 75.2401C165.087 74.9565 165.115 74.5028 165.172 73.879C165.248 73.2363 165.361 72.5274 165.513 71.7524C165.664 70.9773 165.853 70.2306 166.08 69.5123C166.307 68.775 166.572 68.1607 166.875 67.6692C167.197 67.1777 167.566 66.913 167.982 66.8752C168.039 66.7051 168.124 66.5633 168.237 66.4499C168.351 66.3176 168.502 66.2514 168.691 66.2514C169.07 66.2514 169.401 66.4121 169.685 66.7335C169.969 67.0548 170.205 67.4518 170.394 67.9244C170.584 68.397 170.726 68.8601 170.82 69.3138C170.934 69.7675 170.99 70.1361 170.99 70.4197C170.99 71.2892 170.905 72.1493 170.735 73L170.962 73.0284C171.511 73.0284 171.937 72.9433 172.239 72.7732C172.542 72.603 172.779 72.4423 172.949 72.2911C173.119 72.121 173.261 72.0359 173.375 72.0359C173.488 72.0359 173.545 72.1021 173.545 72.2344C173.545 72.4612 173.422 72.6692 173.176 72.8582C172.949 73.0284 172.665 73.189 172.324 73.3403C171.984 73.4726 171.653 73.5671 171.331 73.6238C171.009 73.6805 170.763 73.69 170.593 73.6522C170.498 74.0491 170.338 74.5406 170.111 75.1266C169.902 75.6938 169.638 76.2609 169.316 76.828C169.013 77.3762 168.654 77.8393 168.237 78.2174C167.821 78.5955 167.367 78.7845 166.875 78.7845ZM169.969 72.4329C170.082 71.7713 170.139 71.1002 170.139 70.4197C170.139 70.2684 170.101 70.0132 170.025 69.6541C169.969 69.276 169.874 68.879 169.742 68.4631C169.628 68.0473 169.486 67.6881 169.316 67.3856C169.146 67.0832 168.966 66.9319 168.777 66.9319C168.682 66.9319 168.606 67.0076 168.55 67.1588C168.512 67.2911 168.483 67.4423 168.464 67.6125C168.464 67.7826 168.464 67.896 168.464 67.9527C168.464 68.7089 168.578 69.5028 168.805 70.3346C169.051 71.1474 169.439 71.8469 169.969 72.4329ZM166.96 78.0473C167.244 78.0473 167.537 77.8582 167.84 77.4801C168.143 77.0832 168.427 76.6106 168.691 76.0624C168.975 75.4953 169.212 74.9565 169.401 74.4461C169.59 73.9357 169.713 73.5577 169.77 73.3119C169.051 72.8204 168.512 72.1588 168.152 71.327C167.812 70.4953 167.641 69.6446 167.641 68.775C167.641 68.397 167.67 68.0378 167.726 67.6975C167.329 68.3781 166.998 69.1815 166.733 70.1077C166.468 71.034 166.27 71.9792 166.137 72.9433C166.024 73.9074 165.967 74.7864 165.967 75.5803C165.967 75.7694 165.986 76.0624 166.024 76.4594C166.08 76.8563 166.184 77.225 166.336 77.5652C166.487 77.8866 166.695 78.0473 166.96 78.0473Z"/>
<path d="M173.797 78.4442C173.664 78.4442 173.56 78.397 173.485 78.3025C173.428 78.189 173.399 78.0662 173.399 77.9338C173.399 76.8752 173.456 75.8166 173.57 74.758C173.702 73.6805 173.768 72.6125 173.768 71.5539C173.768 71.4405 173.759 71.2231 173.74 70.9017C173.74 70.5614 173.721 70.2023 173.683 69.8242C173.664 69.4272 173.626 69.0775 173.57 68.775C173.532 68.4537 173.475 68.2552 173.399 68.1796C173.324 68.1229 173.248 68.0567 173.172 67.9811C173.116 67.9055 173.087 67.811 173.087 67.6975C173.087 67.5841 173.135 67.4991 173.229 67.4423C173.343 67.3667 173.456 67.3289 173.57 67.3289C173.891 67.3289 174.118 67.4801 174.251 67.7826C174.402 68.0662 174.497 68.4159 174.535 68.8318C174.591 69.2476 174.62 69.6446 174.62 70.0227C174.62 71.7996 174.563 73.586 174.45 75.3819C174.525 75.1739 174.677 74.8053 174.904 74.276C175.131 73.7467 175.405 73.1512 175.727 72.4896C176.048 71.828 176.38 71.1947 176.72 70.5898C177.08 69.966 177.411 69.4556 177.714 69.0586C178.016 68.6427 178.262 68.4348 178.451 68.4348C178.716 68.4348 178.906 68.6049 179.019 68.9452C179.152 69.2665 179.218 69.5312 179.218 69.7391C179.218 70.6087 179.171 71.4783 179.076 72.3478C179 73.2174 178.962 74.0964 178.962 74.9849C178.962 75.0983 178.972 75.3157 178.991 75.6371C179.029 75.9395 179.085 76.2325 179.161 76.5161C179.256 76.7807 179.398 76.913 179.587 76.913C179.738 76.913 179.937 76.7429 180.183 76.4026C180.429 76.0624 180.684 75.6654 180.949 75.2117C181.214 74.7391 181.451 74.2949 181.659 73.879C181.867 73.4631 182.009 73.1701 182.084 73C182.103 72.9622 182.122 72.9244 182.141 72.8866C182.16 72.8299 182.189 72.8015 182.226 72.8015C182.321 72.8015 182.378 72.8771 182.397 73.0284C182.416 73.1607 182.425 73.2457 182.425 73.2836C182.425 73.4726 182.321 73.8034 182.113 74.276C181.905 74.7486 181.64 75.2495 181.318 75.7788C181.015 76.3081 180.694 76.7618 180.353 77.1399C180.031 77.518 179.738 77.707 179.473 77.707C179.095 77.707 178.811 77.5558 178.622 77.2533C178.451 76.9509 178.338 76.6106 178.281 76.2325C178.224 75.8355 178.196 75.5047 178.196 75.2401C178.196 74.6163 178.224 73.9924 178.281 73.3686C178.357 72.7448 178.395 72.121 178.395 71.4972C178.395 71.4405 178.385 71.2987 178.366 71.0718C178.366 70.845 178.357 70.6276 178.338 70.4197C178.319 70.2117 178.272 70.1077 178.196 70.1077C178.007 70.1077 177.761 70.344 177.458 70.8166C177.174 71.2892 176.862 71.8847 176.521 72.603C176.2 73.3214 175.878 74.0681 175.556 74.8431C175.235 75.5992 174.951 76.2798 174.705 76.8847C174.478 77.4896 174.317 77.896 174.223 78.104C174.185 78.1796 174.128 78.2552 174.052 78.3308C173.995 78.4064 173.91 78.4442 173.797 78.4442Z"/>
<path d="M183.621 88C183.224 88 182.883 87.7921 182.599 87.3762C182.334 86.9603 182.117 86.4121 181.946 85.7316C181.776 85.051 181.634 84.3138 181.521 83.5198C181.426 82.7448 181.36 81.9697 181.322 81.1947C181.284 80.4386 181.256 79.758 181.237 79.1531C181.237 78.5671 181.237 78.1418 181.237 77.8771C180.915 77.6125 180.754 77.2911 180.754 76.913C180.754 76.7618 180.802 76.6295 180.896 76.5161C180.991 76.3837 181.123 76.3176 181.294 76.3176C181.331 75.5803 181.398 74.8431 181.492 74.1059C181.587 73.3686 181.681 72.6408 181.776 71.9225C181.814 71.62 181.908 71.0813 182.06 70.3062C182.23 69.5123 182.438 68.5955 182.684 67.5558C182.949 66.4972 183.242 65.4197 183.564 64.3232C183.886 63.2079 184.217 62.1777 184.557 61.2325C184.917 60.2684 185.277 59.4934 185.636 58.9074C185.996 58.3025 186.336 58 186.658 58C187.017 58 187.292 58.1701 187.481 58.5104C187.67 58.8507 187.803 59.2382 187.878 59.673C187.954 60.0888 187.992 60.4291 187.992 60.6938C187.992 60.9395 187.973 61.1853 187.935 61.431C187.916 61.6768 187.888 61.9225 187.85 62.1682C187.736 62.7354 187.594 63.3025 187.424 63.8696C187.273 64.4178 187.093 64.966 186.885 65.5142C186.809 65.7221 186.667 66.0624 186.459 66.535C186.251 67.0076 185.996 67.5369 185.693 68.1229C185.39 68.69 185.068 69.2476 184.728 69.7958C184.406 70.3251 184.075 70.7694 183.734 71.1285C183.413 71.4688 183.119 71.6389 182.855 71.6389C182.722 72.4896 182.571 73.3308 182.4 74.1626C182.249 74.9754 182.173 75.8261 182.173 76.7146C182.363 76.8469 182.533 76.9887 182.684 77.1399C182.855 77.2911 183.006 77.4518 183.138 77.6219C183.611 77.5841 184.075 77.4234 184.529 77.1399C184.983 76.8374 185.409 76.4877 185.806 76.0907C186.204 75.6749 186.563 75.2684 186.885 74.8715C187.225 74.4745 187.5 74.1437 187.708 73.879C187.935 73.5955 188.086 73.4537 188.162 73.4537C188.2 73.4537 188.228 73.482 188.247 73.5387C188.266 73.5766 188.276 73.6144 188.276 73.6522C188.276 73.9546 188.086 74.3516 187.708 74.8431C187.348 75.3157 186.904 75.8072 186.374 76.3176C185.844 76.8091 185.324 77.2439 184.813 77.6219C184.321 78 183.943 78.2363 183.678 78.3308C184.283 79.1626 184.699 80.0605 184.926 81.0246C185.172 81.9887 185.295 82.9811 185.295 84.0019C185.295 84.2854 185.277 84.6446 185.239 85.0794C185.22 85.5142 185.154 85.9584 185.04 86.4121C184.945 86.8658 184.785 87.2439 184.557 87.5463C184.33 87.8488 184.018 88 183.621 88ZM183.053 70.448C183.356 70.3535 183.678 70.0699 184.018 69.5974C184.359 69.1248 184.69 68.5577 185.012 67.896C185.333 67.2344 185.627 66.5539 185.891 65.8544C186.156 65.1361 186.374 64.4839 186.544 63.8979C186.733 63.293 186.856 62.8393 186.913 62.5369C186.989 62.1588 187.055 61.7713 187.112 61.3743C187.169 60.9773 187.197 60.5898 187.197 60.2117C187.197 60.0983 187.178 59.9187 187.14 59.673C187.121 59.4083 187.008 59.276 186.8 59.276C186.743 59.276 186.667 59.2949 186.573 59.3327C186.497 59.3705 186.44 59.4083 186.402 59.4461C186.005 60.1267 185.617 60.9395 185.239 61.8847C184.879 62.811 184.548 63.7939 184.245 64.8336C183.943 65.8544 183.687 66.8563 183.479 67.8393C183.271 68.8223 183.129 69.6919 183.053 70.448ZM183.678 87.2628C183.924 87.2628 184.103 87.121 184.217 86.8374C184.33 86.5539 184.397 86.2325 184.416 85.8733C184.453 85.5142 184.472 85.2117 184.472 84.966C184.472 84.2098 184.425 83.4442 184.33 82.6692C184.255 81.8941 184.084 81.138 183.82 80.4008C183.574 79.6824 183.186 79.0397 182.656 78.4726L182.145 78.3592C182.145 78.5293 182.145 78.8601 182.145 79.3516C182.164 79.862 182.192 80.448 182.23 81.1096C182.268 81.7902 182.325 82.4801 182.4 83.1796C182.476 83.8979 182.571 84.5595 182.684 85.1645C182.798 85.7883 182.93 86.2892 183.082 86.6673C183.252 87.0643 183.451 87.2628 183.678 87.2628Z"/>
</mask>
<path d="M14.628 1C21.6098 1 26.958 2.25315 30.6727 4.75944C34.3874 7.22098 36.2448 11.0699 36.2448 16.3063C36.2448 19.5734 35.4839 22.2364 33.9622 24.2951C32.4853 26.3091 30.3371 27.8979 27.5175 29.0615C28.4573 30.2252 29.442 31.5678 30.4713 33.0895C31.5007 34.5664 32.5077 36.1329 33.4923 37.7888C34.5217 39.4 35.5063 41.1007 36.4462 42.8909C37.386 44.6364 38.2587 46.3594 39.0643 48.0601H27.3161C26.4657 46.5385 25.593 44.9944 24.6979 43.428C23.8476 41.8615 22.9524 40.3399 22.0126 38.8629C21.1175 37.386 20.2224 35.9986 19.3273 34.7007C18.4322 33.358 17.5371 32.1496 16.642 31.0755H11.4727V48.0601H1V2.20839C3.28252 1.76084 5.63217 1.44755 8.04895 1.26853C10.5105 1.08951 12.7035 1 14.628 1ZM15.2322 9.92867C14.4713 9.92867 13.7776 9.95105 13.151 9.9958C12.5692 10.0406 12.0098 10.0853 11.4727 10.1301V22.751H14.4266C18.365 22.751 21.1846 22.2587 22.8853 21.2741C24.586 20.2895 25.4364 18.6112 25.4364 16.2392C25.4364 13.9566 24.5636 12.3455 22.8182 11.4056C21.1175 10.421 18.5888 9.92867 15.2322 9.92867Z" fill="#111D5E"/>
<path d="M41.7229 30.6727C41.7229 27.5399 42.1928 24.8098 43.1327 22.4825C44.1173 20.1105 45.3928 18.1413 46.9593 16.5748C48.5257 15.0084 50.3159 13.8224 52.3299 13.0168C54.3886 12.2112 56.4921 11.8084 58.6404 11.8084C63.653 11.8084 67.6138 13.3524 70.5229 16.4406C73.432 19.4839 74.8865 23.9818 74.8865 29.9343C74.8865 30.5161 74.8642 31.165 74.8194 31.8811C74.7747 32.5524 74.7299 33.1566 74.6851 33.6937H51.9942C52.218 35.7524 53.1802 37.386 54.8809 38.5944C56.5816 39.8028 58.8642 40.407 61.7285 40.407C63.5635 40.407 65.3537 40.2503 67.0991 39.9371C68.8893 39.579 70.3439 39.1538 71.4628 38.6615L72.8054 46.7846C72.2684 47.0531 71.5523 47.3217 70.6572 47.5902C69.7621 47.8587 68.7551 48.0825 67.6362 48.2615C66.5621 48.4853 65.3984 48.6643 64.1453 48.7986C62.8921 48.9329 61.639 49 60.3858 49C57.2082 49 54.4334 48.5301 52.0614 47.5902C49.7341 46.6504 47.7872 45.3748 46.2208 43.7636C44.6991 42.1077 43.5579 40.1608 42.797 37.9231C42.0809 35.6853 41.7229 33.2685 41.7229 30.6727ZM65.2194 26.8462C65.1747 25.9958 65.018 25.1678 64.7495 24.3622C64.5257 23.5566 64.1453 22.8406 63.6082 22.214C63.1159 21.5874 62.467 21.0727 61.6614 20.6699C60.9005 20.2671 59.9383 20.0657 58.7747 20.0657C57.6558 20.0657 56.6935 20.2671 55.8879 20.6699C55.0823 21.028 54.411 21.5203 53.8739 22.1469C53.3369 22.7734 52.9117 23.5119 52.5984 24.3622C52.3299 25.1678 52.1285 25.9958 51.9942 26.8462H65.2194Z" fill="#111D5E"/>
<path d="M96.0995 41.0783C97.0841 41.0783 98.024 41.0559 98.9191 41.0112C99.8142 40.9664 100.53 40.8993 101.067 40.8098V33.2238C100.665 33.1343 100.06 33.0448 99.2547 32.9552C98.4491 32.8657 97.7107 32.821 97.0393 32.821C96.0995 32.821 95.2044 32.8881 94.354 33.0224C93.5484 33.1119 92.8324 33.3133 92.2058 33.6266C91.5792 33.9399 91.0869 34.365 90.7289 34.9021C90.3708 35.4392 90.1918 36.1105 90.1918 36.9161C90.1918 38.4825 90.7065 39.579 91.7358 40.2056C92.81 40.7874 94.2645 41.0783 96.0995 41.0783ZM95.2939 11.8084C98.2477 11.8084 100.709 12.1441 102.678 12.8154C104.648 13.4867 106.214 14.4489 107.378 15.7021C108.586 16.9552 109.437 18.4769 109.929 20.2671C110.421 22.0573 110.667 24.0489 110.667 26.242V47.0531C109.235 47.3664 107.244 47.7245 104.692 48.1273C102.141 48.5748 99.0533 48.7986 95.4281 48.7986C93.1456 48.7986 91.0645 48.5972 89.1848 48.1944C87.3498 47.7916 85.761 47.1427 84.4184 46.2476C83.0757 45.3077 82.0463 44.0993 81.3302 42.6224C80.6142 41.1455 80.2561 39.3329 80.2561 37.1846C80.2561 35.1259 80.6589 33.3804 81.4645 31.9482C82.3149 30.5161 83.4337 29.3748 84.8212 28.5245C86.2086 27.6741 87.7974 27.0699 89.5876 26.7119C91.3778 26.3091 93.2351 26.1077 95.1596 26.1077C96.4575 26.1077 97.5988 26.1748 98.5834 26.3091C99.6128 26.3986 100.441 26.5329 101.067 26.7119V25.772C101.067 24.0713 100.553 22.7063 99.5233 21.6769C98.4939 20.6476 96.7037 20.1329 94.1526 20.1329C92.4519 20.1329 90.7736 20.2671 89.1177 20.5357C87.4617 20.7594 86.0295 21.0951 84.8212 21.5427L83.5456 13.4867C84.1274 13.3077 84.8435 13.1287 85.6939 12.9497C86.589 12.7259 87.5512 12.5469 88.5806 12.4126C89.61 12.2336 90.6841 12.0993 91.803 12.0098C92.9666 11.8755 94.1302 11.8084 95.2939 11.8084Z" fill="#111D5E"/>
<path d="M118.034 30.4042C118.034 27.8531 118.437 25.4587 119.242 23.221C120.093 20.9385 121.301 18.9692 122.868 17.3133C124.434 15.6126 126.336 14.2699 128.574 13.2853C130.812 12.3007 133.363 11.8084 136.227 11.8084C138.107 11.8084 139.83 11.9874 141.396 12.3455C142.963 12.6587 144.484 13.1287 145.961 13.7552L143.88 21.7441C142.94 21.386 141.911 21.0727 140.792 20.8042C139.673 20.5357 138.42 20.4014 137.033 20.4014C134.079 20.4014 131.863 21.3189 130.387 23.1538C128.954 24.9888 128.238 27.4056 128.238 30.4042C128.238 33.5818 128.91 36.0434 130.252 37.7888C131.64 39.5343 134.034 40.407 137.435 40.407C138.644 40.407 139.942 40.2951 141.329 40.0713C142.717 39.8475 143.992 39.4895 145.156 38.9972L146.566 47.1874C145.402 47.6797 143.947 48.1049 142.202 48.4629C140.456 48.821 138.532 49 136.428 49C133.206 49 130.431 48.5301 128.104 47.5902C125.777 46.6056 123.852 45.2853 122.331 43.6294C120.854 41.9734 119.757 40.0266 119.041 37.7888C118.37 35.5063 118.034 33.0448 118.034 30.4042Z" fill="#FFC93E"/>
<path d="M152.943 3.95385L162.946 2.34265V12.7483H174.963V21.0727H162.946V33.4923C162.946 35.5958 163.304 37.2741 164.02 38.5273C164.781 39.7804 166.28 40.407 168.518 40.407C169.592 40.407 170.689 40.3175 171.808 40.1385C172.971 39.9147 174.023 39.6238 174.963 39.2657L176.373 47.0531C175.164 47.5455 173.822 47.9706 172.345 48.3287C170.868 48.6867 169.055 48.8657 166.907 48.8657C164.177 48.8657 161.917 48.5077 160.126 47.7916C158.336 47.0308 156.904 46.0014 155.83 44.7035C154.756 43.3608 153.995 41.7496 153.547 39.8699C153.145 37.9902 152.943 35.9091 152.943 33.6266V3.95385Z" fill="#111D5E"/>
<path d="M153.847 79.8904C152.409 79.8904 151.255 79.569 150.384 78.9263C149.533 78.2836 148.918 77.4234 148.539 76.3459C148.18 75.2684 148 74.087 148 72.8015C148 71.8185 148.104 70.845 148.312 69.8809C148.539 68.9168 148.851 67.9811 149.249 67.0737C149.533 66.3932 149.93 65.6465 150.441 64.8336C150.952 64.0208 151.538 63.2174 152.201 62.4234C152.863 61.6106 153.572 60.8733 154.329 60.2117C155.105 59.5501 155.909 59.0208 156.742 58.6238C157.574 58.2079 158.407 58 159.239 58C160.242 58 161.018 58.3119 161.567 58.9357C162.134 59.5595 162.418 60.3535 162.418 61.3176C162.418 62.0737 162.248 62.8771 161.907 63.7278C161.586 64.5784 161.141 65.3819 160.573 66.138C160.006 66.8752 159.344 67.4801 158.587 67.9527C157.849 68.4253 157.063 68.6616 156.231 68.6616C155.701 68.6616 155.294 68.5104 155.01 68.2079C154.727 67.9055 154.585 67.4896 154.585 66.9603C154.585 66.828 154.613 66.6011 154.67 66.2798C154.727 65.9584 154.812 65.6276 154.925 65.2873C155.039 64.9282 155.162 64.6257 155.294 64.38C155.427 64.1153 155.559 63.983 155.692 63.983C155.767 63.983 155.815 64.0208 155.834 64.0964C155.852 64.1531 155.862 64.2098 155.862 64.2665C155.862 64.6824 155.748 65.0983 155.521 65.5142C155.294 65.9301 155.181 66.3837 155.181 66.8752C155.181 67.2533 155.285 67.5652 155.493 67.811C155.701 68.0567 156.004 68.1796 156.401 68.1796C157.12 68.1796 157.792 67.9622 158.416 67.5274C159.06 67.0737 159.627 66.4972 160.119 65.7977C160.611 65.0983 160.999 64.3705 161.283 63.6144C161.567 62.8393 161.709 62.1304 161.709 61.4877C161.709 60.7316 161.472 60.1077 160.999 59.6163C160.545 59.1059 159.93 58.8507 159.154 58.8507C158.397 58.8507 157.631 59.0492 156.855 59.4461C156.098 59.8242 155.361 60.3346 154.641 60.9773C153.941 61.6011 153.279 62.2911 152.655 63.0473C152.049 63.8034 151.519 64.569 151.065 65.344C150.611 66.1002 150.252 66.7996 149.987 67.4423C149.627 68.293 149.343 69.172 149.135 70.0794C148.946 70.9679 148.851 71.8752 148.851 72.8015C148.851 73.8979 149.003 74.9282 149.306 75.8923C149.627 76.8374 150.157 77.603 150.895 78.189C151.633 78.7561 152.626 79.0397 153.875 79.0397H154.159C155.029 79.0397 155.9 78.7845 156.77 78.2741C157.641 77.7448 158.473 77.0737 159.268 76.2609C160.063 75.448 160.772 74.6163 161.397 73.7656C162.04 72.896 162.57 72.121 162.986 71.4405C163.251 71.0057 163.478 70.5709 163.667 70.1361C163.875 69.6824 164.093 69.2382 164.32 68.8034C164.358 68.7467 164.405 68.6805 164.462 68.6049C164.519 68.5293 164.585 68.4915 164.661 68.4915C164.698 68.6049 164.717 68.6994 164.717 68.775C164.717 68.8885 164.698 68.983 164.661 69.0586C164.415 69.8147 164.027 70.6654 163.497 71.6106C162.967 72.5558 162.333 73.5104 161.595 74.4745C160.857 75.4386 160.053 76.3365 159.183 77.1682C158.331 77.9811 157.442 78.6333 156.515 79.1248C155.606 79.6352 154.717 79.8904 153.847 79.8904Z" fill="#FFC93E"/>
<path d="M166.875 78.7845C166.515 78.7845 166.213 78.6522 165.967 78.3875C165.74 78.1229 165.56 77.8015 165.427 77.4234C165.295 77.0265 165.2 76.6295 165.144 76.2325C165.106 75.8355 165.087 75.5047 165.087 75.2401C165.087 74.9565 165.115 74.5028 165.172 73.879C165.248 73.2363 165.361 72.5274 165.513 71.7524C165.664 70.9773 165.853 70.2306 166.08 69.5123C166.307 68.775 166.572 68.1607 166.875 67.6692C167.197 67.1777 167.566 66.913 167.982 66.8752C168.039 66.7051 168.124 66.5633 168.237 66.4499C168.351 66.3176 168.502 66.2514 168.691 66.2514C169.07 66.2514 169.401 66.4121 169.685 66.7335C169.969 67.0548 170.205 67.4518 170.394 67.9244C170.584 68.397 170.726 68.8601 170.82 69.3138C170.934 69.7675 170.99 70.1361 170.99 70.4197C170.99 71.2892 170.905 72.1493 170.735 73L170.962 73.0284C171.511 73.0284 171.937 72.9433 172.239 72.7732C172.542 72.603 172.779 72.4423 172.949 72.2911C173.119 72.121 173.261 72.0359 173.375 72.0359C173.488 72.0359 173.545 72.1021 173.545 72.2344C173.545 72.4612 173.422 72.6692 173.176 72.8582C172.949 73.0284 172.665 73.189 172.324 73.3403C171.984 73.4726 171.653 73.5671 171.331 73.6238C171.009 73.6805 170.763 73.69 170.593 73.6522C170.498 74.0491 170.338 74.5406 170.111 75.1266C169.902 75.6938 169.638 76.2609 169.316 76.828C169.013 77.3762 168.654 77.8393 168.237 78.2174C167.821 78.5955 167.367 78.7845 166.875 78.7845ZM169.969 72.4329C170.082 71.7713 170.139 71.1002 170.139 70.4197C170.139 70.2684 170.101 70.0132 170.025 69.6541C169.969 69.276 169.874 68.879 169.742 68.4631C169.628 68.0473 169.486 67.6881 169.316 67.3856C169.146 67.0832 168.966 66.9319 168.777 66.9319C168.682 66.9319 168.606 67.0076 168.55 67.1588C168.512 67.2911 168.483 67.4423 168.464 67.6125C168.464 67.7826 168.464 67.896 168.464 67.9527C168.464 68.7089 168.578 69.5028 168.805 70.3346C169.051 71.1474 169.439 71.8469 169.969 72.4329ZM166.96 78.0473C167.244 78.0473 167.537 77.8582 167.84 77.4801C168.143 77.0832 168.427 76.6106 168.691 76.0624C168.975 75.4953 169.212 74.9565 169.401 74.4461C169.59 73.9357 169.713 73.5577 169.77 73.3119C169.051 72.8204 168.512 72.1588 168.152 71.327C167.812 70.4953 167.641 69.6446 167.641 68.775C167.641 68.397 167.67 68.0378 167.726 67.6975C167.329 68.3781 166.998 69.1815 166.733 70.1077C166.468 71.034 166.27 71.9792 166.137 72.9433C166.024 73.9074 165.967 74.7864 165.967 75.5803C165.967 75.7694 165.986 76.0624 166.024 76.4594C166.08 76.8563 166.184 77.225 166.336 77.5652C166.487 77.8866 166.695 78.0473 166.96 78.0473Z" fill="#FFC93E"/>
<path d="M173.797 78.4442C173.664 78.4442 173.56 78.397 173.485 78.3025C173.428 78.189 173.399 78.0662 173.399 77.9338C173.399 76.8752 173.456 75.8166 173.57 74.758C173.702 73.6805 173.768 72.6125 173.768 71.5539C173.768 71.4405 173.759 71.2231 173.74 70.9017C173.74 70.5614 173.721 70.2023 173.683 69.8242C173.664 69.4272 173.626 69.0775 173.57 68.775C173.532 68.4537 173.475 68.2552 173.399 68.1796C173.324 68.1229 173.248 68.0567 173.172 67.9811C173.116 67.9055 173.087 67.811 173.087 67.6975C173.087 67.5841 173.135 67.4991 173.229 67.4423C173.343 67.3667 173.456 67.3289 173.57 67.3289C173.891 67.3289 174.118 67.4801 174.251 67.7826C174.402 68.0662 174.497 68.4159 174.535 68.8318C174.591 69.2476 174.62 69.6446 174.62 70.0227C174.62 71.7996 174.563 73.586 174.45 75.3819C174.525 75.1739 174.677 74.8053 174.904 74.276C175.131 73.7467 175.405 73.1512 175.727 72.4896C176.048 71.828 176.38 71.1947 176.72 70.5898C177.08 69.966 177.411 69.4556 177.714 69.0586C178.016 68.6427 178.262 68.4348 178.451 68.4348C178.716 68.4348 178.906 68.6049 179.019 68.9452C179.152 69.2665 179.218 69.5312 179.218 69.7391C179.218 70.6087 179.171 71.4783 179.076 72.3478C179 73.2174 178.962 74.0964 178.962 74.9849C178.962 75.0983 178.972 75.3157 178.991 75.6371C179.029 75.9395 179.085 76.2325 179.161 76.5161C179.256 76.7807 179.398 76.913 179.587 76.913C179.738 76.913 179.937 76.7429 180.183 76.4026C180.429 76.0624 180.684 75.6654 180.949 75.2117C181.214 74.7391 181.451 74.2949 181.659 73.879C181.867 73.4631 182.009 73.1701 182.084 73C182.103 72.9622 182.122 72.9244 182.141 72.8866C182.16 72.8299 182.189 72.8015 182.226 72.8015C182.321 72.8015 182.378 72.8771 182.397 73.0284C182.416 73.1607 182.425 73.2457 182.425 73.2836C182.425 73.4726 182.321 73.8034 182.113 74.276C181.905 74.7486 181.64 75.2495 181.318 75.7788C181.015 76.3081 180.694 76.7618 180.353 77.1399C180.031 77.518 179.738 77.707 179.473 77.707C179.095 77.707 178.811 77.5558 178.622 77.2533C178.451 76.9509 178.338 76.6106 178.281 76.2325C178.224 75.8355 178.196 75.5047 178.196 75.2401C178.196 74.6163 178.224 73.9924 178.281 73.3686C178.357 72.7448 178.395 72.121 178.395 71.4972C178.395 71.4405 178.385 71.2987 178.366 71.0718C178.366 70.845 178.357 70.6276 178.338 70.4197C178.319 70.2117 178.272 70.1077 178.196 70.1077C178.007 70.1077 177.761 70.344 177.458 70.8166C177.174 71.2892 176.862 71.8847 176.521 72.603C176.2 73.3214 175.878 74.0681 175.556 74.8431C175.235 75.5992 174.951 76.2798 174.705 76.8847C174.478 77.4896 174.317 77.896 174.223 78.104C174.185 78.1796 174.128 78.2552 174.052 78.3308C173.995 78.4064 173.91 78.4442 173.797 78.4442Z" fill="#FFC93E"/>
<path d="M183.621 88C183.224 88 182.883 87.7921 182.599 87.3762C182.334 86.9603 182.117 86.4121 181.946 85.7316C181.776 85.051 181.634 84.3138 181.521 83.5198C181.426 82.7448 181.36 81.9697 181.322 81.1947C181.284 80.4386 181.256 79.758 181.237 79.1531C181.237 78.5671 181.237 78.1418 181.237 77.8771C180.915 77.6125 180.754 77.2911 180.754 76.913C180.754 76.7618 180.802 76.6295 180.896 76.5161C180.991 76.3837 181.123 76.3176 181.294 76.3176C181.331 75.5803 181.398 74.8431 181.492 74.1059C181.587 73.3686 181.681 72.6408 181.776 71.9225C181.814 71.62 181.908 71.0813 182.06 70.3062C182.23 69.5123 182.438 68.5955 182.684 67.5558C182.949 66.4972 183.242 65.4197 183.564 64.3232C183.886 63.2079 184.217 62.1777 184.557 61.2325C184.917 60.2684 185.277 59.4934 185.636 58.9074C185.996 58.3025 186.336 58 186.658 58C187.017 58 187.292 58.1701 187.481 58.5104C187.67 58.8507 187.803 59.2382 187.878 59.673C187.954 60.0888 187.992 60.4291 187.992 60.6938C187.992 60.9395 187.973 61.1853 187.935 61.431C187.916 61.6768 187.888 61.9225 187.85 62.1682C187.736 62.7354 187.594 63.3025 187.424 63.8696C187.273 64.4178 187.093 64.966 186.885 65.5142C186.809 65.7221 186.667 66.0624 186.459 66.535C186.251 67.0076 185.996 67.5369 185.693 68.1229C185.39 68.69 185.068 69.2476 184.728 69.7958C184.406 70.3251 184.075 70.7694 183.734 71.1285C183.413 71.4688 183.119 71.6389 182.855 71.6389C182.722 72.4896 182.571 73.3308 182.4 74.1626C182.249 74.9754 182.173 75.8261 182.173 76.7146C182.363 76.8469 182.533 76.9887 182.684 77.1399C182.855 77.2911 183.006 77.4518 183.138 77.6219C183.611 77.5841 184.075 77.4234 184.529 77.1399C184.983 76.8374 185.409 76.4877 185.806 76.0907C186.204 75.6749 186.563 75.2684 186.885 74.8715C187.225 74.4745 187.5 74.1437 187.708 73.879C187.935 73.5955 188.086 73.4537 188.162 73.4537C188.2 73.4537 188.228 73.482 188.247 73.5387C188.266 73.5766 188.276 73.6144 188.276 73.6522C188.276 73.9546 188.086 74.3516 187.708 74.8431C187.348 75.3157 186.904 75.8072 186.374 76.3176C185.844 76.8091 185.324 77.2439 184.813 77.6219C184.321 78 183.943 78.2363 183.678 78.3308C184.283 79.1626 184.699 80.0605 184.926 81.0246C185.172 81.9887 185.295 82.9811 185.295 84.0019C185.295 84.2854 185.277 84.6446 185.239 85.0794C185.22 85.5142 185.154 85.9584 185.04 86.4121C184.945 86.8658 184.785 87.2439 184.557 87.5463C184.33 87.8488 184.018 88 183.621 88ZM183.053 70.448C183.356 70.3535 183.678 70.0699 184.018 69.5974C184.359 69.1248 184.69 68.5577 185.012 67.896C185.333 67.2344 185.627 66.5539 185.891 65.8544C186.156 65.1361 186.374 64.4839 186.544 63.8979C186.733 63.293 186.856 62.8393 186.913 62.5369C186.989 62.1588 187.055 61.7713 187.112 61.3743C187.169 60.9773 187.197 60.5898 187.197 60.2117C187.197 60.0983 187.178 59.9187 187.14 59.673C187.121 59.4083 187.008 59.276 186.8 59.276C186.743 59.276 186.667 59.2949 186.573 59.3327C186.497 59.3705 186.44 59.4083 186.402 59.4461C186.005 60.1267 185.617 60.9395 185.239 61.8847C184.879 62.811 184.548 63.7939 184.245 64.8336C183.943 65.8544 183.687 66.8563 183.479 67.8393C183.271 68.8223 183.129 69.6919 183.053 70.448ZM183.678 87.2628C183.924 87.2628 184.103 87.121 184.217 86.8374C184.33 86.5539 184.397 86.2325 184.416 85.8733C184.453 85.5142 184.472 85.2117 184.472 84.966C184.472 84.2098 184.425 83.4442 184.33 82.6692C184.255 81.8941 184.084 81.138 183.82 80.4008C183.574 79.6824 183.186 79.0397 182.656 78.4726L182.145 78.3592C182.145 78.5293 182.145 78.8601 182.145 79.3516C182.164 79.862 182.192 80.448 182.23 81.1096C182.268 81.7902 182.325 82.4801 182.4 83.1796C182.476 83.8979 182.571 84.5595 182.684 85.1645C182.798 85.7883 182.93 86.2892 183.082 86.6673C183.252 87.0643 183.451 87.2628 183.678 87.2628Z" fill="#FFC93E"/>
<path d="M14.628 1C21.6098 1 26.958 2.25315 30.6727 4.75944C34.3874 7.22098 36.2448 11.0699 36.2448 16.3063C36.2448 19.5734 35.4839 22.2364 33.9622 24.2951C32.4853 26.3091 30.3371 27.8979 27.5175 29.0615C28.4573 30.2252 29.442 31.5678 30.4713 33.0895C31.5007 34.5664 32.5077 36.1329 33.4923 37.7888C34.5217 39.4 35.5063 41.1007 36.4462 42.8909C37.386 44.6364 38.2587 46.3594 39.0643 48.0601H27.3161C26.4657 46.5385 25.593 44.9944 24.6979 43.428C23.8476 41.8615 22.9524 40.3399 22.0126 38.8629C21.1175 37.386 20.2224 35.9986 19.3273 34.7007C18.4322 33.358 17.5371 32.1496 16.642 31.0755H11.4727V48.0601H1V2.20839C3.28252 1.76084 5.63217 1.44755 8.04895 1.26853C10.5105 1.08951 12.7035 1 14.628 1ZM15.2322 9.92867C14.4713 9.92867 13.7776 9.95105 13.151 9.9958C12.5692 10.0406 12.0098 10.0853 11.4727 10.1301V22.751H14.4266C18.365 22.751 21.1846 22.2587 22.8853 21.2741C24.586 20.2895 25.4364 18.6112 25.4364 16.2392C25.4364 13.9566 24.5636 12.3455 22.8182 11.4056C21.1175 10.421 18.5888 9.92867 15.2322 9.92867Z" stroke="#FFC93E" stroke-width="0.4" mask="url(#path-1-outside-1_5819_1245)"/>
<path d="M41.7229 30.6727C41.7229 27.5399 42.1928 24.8098 43.1327 22.4825C44.1173 20.1105 45.3928 18.1413 46.9593 16.5748C48.5257 15.0084 50.3159 13.8224 52.3299 13.0168C54.3886 12.2112 56.4921 11.8084 58.6404 11.8084C63.653 11.8084 67.6138 13.3524 70.5229 16.4406C73.432 19.4839 74.8865 23.9818 74.8865 29.9343C74.8865 30.5161 74.8642 31.165 74.8194 31.8811C74.7747 32.5524 74.7299 33.1566 74.6851 33.6937H51.9942C52.218 35.7524 53.1802 37.386 54.8809 38.5944C56.5816 39.8028 58.8642 40.407 61.7285 40.407C63.5635 40.407 65.3537 40.2503 67.0991 39.9371C68.8893 39.579 70.3439 39.1538 71.4628 38.6615L72.8054 46.7846C72.2684 47.0531 71.5523 47.3217 70.6572 47.5902C69.7621 47.8587 68.7551 48.0825 67.6362 48.2615C66.5621 48.4853 65.3984 48.6643 64.1453 48.7986C62.8921 48.9329 61.639 49 60.3858 49C57.2082 49 54.4334 48.5301 52.0614 47.5902C49.7341 46.6504 47.7872 45.3748 46.2208 43.7636C44.6991 42.1077 43.5579 40.1608 42.797 37.9231C42.0809 35.6853 41.7229 33.2685 41.7229 30.6727ZM65.2194 26.8462C65.1747 25.9958 65.018 25.1678 64.7495 24.3622C64.5257 23.5566 64.1453 22.8406 63.6082 22.214C63.1159 21.5874 62.467 21.0727 61.6614 20.6699C60.9005 20.2671 59.9383 20.0657 58.7747 20.0657C57.6558 20.0657 56.6935 20.2671 55.8879 20.6699C55.0823 21.028 54.411 21.5203 53.8739 22.1469C53.3369 22.7734 52.9117 23.5119 52.5984 24.3622C52.3299 25.1678 52.1285 25.9958 51.9942 26.8462H65.2194Z" stroke="#FFC93E" stroke-width="0.4" mask="url(#path-1-outside-1_5819_1245)"/>
<path d="M96.0995 41.0783C97.0841 41.0783 98.024 41.0559 98.9191 41.0112C99.8142 40.9664 100.53 40.8993 101.067 40.8098V33.2238C100.665 33.1343 100.06 33.0448 99.2547 32.9552C98.4491 32.8657 97.7107 32.821 97.0393 32.821C96.0995 32.821 95.2044 32.8881 94.354 33.0224C93.5484 33.1119 92.8324 33.3133 92.2058 33.6266C91.5792 33.9399 91.0869 34.365 90.7289 34.9021C90.3708 35.4392 90.1918 36.1105 90.1918 36.9161C90.1918 38.4825 90.7065 39.579 91.7358 40.2056C92.81 40.7874 94.2645 41.0783 96.0995 41.0783ZM95.2939 11.8084C98.2477 11.8084 100.709 12.1441 102.678 12.8154C104.648 13.4867 106.214 14.4489 107.378 15.7021C108.586 16.9552 109.437 18.4769 109.929 20.2671C110.421 22.0573 110.667 24.0489 110.667 26.242V47.0531C109.235 47.3664 107.244 47.7245 104.692 48.1273C102.141 48.5748 99.0533 48.7986 95.4281 48.7986C93.1456 48.7986 91.0645 48.5972 89.1848 48.1944C87.3498 47.7916 85.761 47.1427 84.4184 46.2476C83.0757 45.3077 82.0463 44.0993 81.3302 42.6224C80.6142 41.1455 80.2561 39.3329 80.2561 37.1846C80.2561 35.1259 80.6589 33.3804 81.4645 31.9482C82.3149 30.5161 83.4337 29.3748 84.8212 28.5245C86.2086 27.6741 87.7974 27.0699 89.5876 26.7119C91.3778 26.3091 93.2351 26.1077 95.1596 26.1077C96.4575 26.1077 97.5988 26.1748 98.5834 26.3091C99.6128 26.3986 100.441 26.5329 101.067 26.7119V25.772C101.067 24.0713 100.553 22.7063 99.5233 21.6769C98.4939 20.6476 96.7037 20.1329 94.1526 20.1329C92.4519 20.1329 90.7736 20.2671 89.1177 20.5357C87.4617 20.7594 86.0295 21.0951 84.8212 21.5427L83.5456 13.4867C84.1274 13.3077 84.8435 13.1287 85.6939 12.9497C86.589 12.7259 87.5512 12.5469 88.5806 12.4126C89.61 12.2336 90.6841 12.0993 91.803 12.0098C92.9666 11.8755 94.1302 11.8084 95.2939 11.8084Z" stroke="#FFC93E" stroke-width="0.4" mask="url(#path-1-outside-1_5819_1245)"/>
<path d="M118.034 30.4042C118.034 27.8531 118.437 25.4587 119.242 23.221C120.093 20.9385 121.301 18.9692 122.868 17.3133C124.434 15.6126 126.336 14.2699 128.574 13.2853C130.812 12.3007 133.363 11.8084 136.227 11.8084C138.107 11.8084 139.83 11.9874 141.396 12.3455C142.963 12.6587 144.484 13.1287 145.961 13.7552L143.88 21.7441C142.94 21.386 141.911 21.0727 140.792 20.8042C139.673 20.5357 138.42 20.4014 137.033 20.4014C134.079 20.4014 131.863 21.3189 130.387 23.1538C128.954 24.9888 128.238 27.4056 128.238 30.4042C128.238 33.5818 128.91 36.0434 130.252 37.7888C131.64 39.5343 134.034 40.407 137.435 40.407C138.644 40.407 139.942 40.2951 141.329 40.0713C142.717 39.8475 143.992 39.4895 145.156 38.9972L146.566 47.1874C145.402 47.6797 143.947 48.1049 142.202 48.4629C140.456 48.821 138.532 49 136.428 49C133.206 49 130.431 48.5301 128.104 47.5902C125.777 46.6056 123.852 45.2853 122.331 43.6294C120.854 41.9734 119.757 40.0266 119.041 37.7888C118.37 35.5063 118.034 33.0448 118.034 30.4042Z" stroke="#FFC93E" stroke-width="0.4" mask="url(#path-1-outside-1_5819_1245)"/>
<path d="M152.943 3.95385L162.946 2.34265V12.7483H174.963V21.0727H162.946V33.4923C162.946 35.5958 163.304 37.2741 164.02 38.5273C164.781 39.7804 166.28 40.407 168.518 40.407C169.592 40.407 170.689 40.3175 171.808 40.1385C172.971 39.9147 174.023 39.6238 174.963 39.2657L176.373 47.0531C175.164 47.5455 173.822 47.9706 172.345 48.3287C170.868 48.6867 169.055 48.8657 166.907 48.8657C164.177 48.8657 161.917 48.5077 160.126 47.7916C158.336 47.0308 156.904 46.0014 155.83 44.7035C154.756 43.3608 153.995 41.7496 153.547 39.8699C153.145 37.9902 152.943 35.9091 152.943 33.6266V3.95385Z" stroke="#FFC93E" stroke-width="0.4" mask="url(#path-1-outside-1_5819_1245)"/>
<path d="M153.847 79.8904C152.409 79.8904 151.255 79.569 150.384 78.9263C149.533 78.2836 148.918 77.4234 148.539 76.3459C148.18 75.2684 148 74.087 148 72.8015C148 71.8185 148.104 70.845 148.312 69.8809C148.539 68.9168 148.851 67.9811 149.249 67.0737C149.533 66.3932 149.93 65.6465 150.441 64.8336C150.952 64.0208 151.538 63.2174 152.201 62.4234C152.863 61.6106 153.572 60.8733 154.329 60.2117C155.105 59.5501 155.909 59.0208 156.742 58.6238C157.574 58.2079 158.407 58 159.239 58C160.242 58 161.018 58.3119 161.567 58.9357C162.134 59.5595 162.418 60.3535 162.418 61.3176C162.418 62.0737 162.248 62.8771 161.907 63.7278C161.586 64.5784 161.141 65.3819 160.573 66.138C160.006 66.8752 159.344 67.4801 158.587 67.9527C157.849 68.4253 157.063 68.6616 156.231 68.6616C155.701 68.6616 155.294 68.5104 155.01 68.2079C154.727 67.9055 154.585 67.4896 154.585 66.9603C154.585 66.828 154.613 66.6011 154.67 66.2798C154.727 65.9584 154.812 65.6276 154.925 65.2873C155.039 64.9282 155.162 64.6257 155.294 64.38C155.427 64.1153 155.559 63.983 155.692 63.983C155.767 63.983 155.815 64.0208 155.834 64.0964C155.852 64.1531 155.862 64.2098 155.862 64.2665C155.862 64.6824 155.748 65.0983 155.521 65.5142C155.294 65.9301 155.181 66.3837 155.181 66.8752C155.181 67.2533 155.285 67.5652 155.493 67.811C155.701 68.0567 156.004 68.1796 156.401 68.1796C157.12 68.1796 157.792 67.9622 158.416 67.5274C159.06 67.0737 159.627 66.4972 160.119 65.7977C160.611 65.0983 160.999 64.3705 161.283 63.6144C161.567 62.8393 161.709 62.1304 161.709 61.4877C161.709 60.7316 161.472 60.1077 160.999 59.6163C160.545 59.1059 159.93 58.8507 159.154 58.8507C158.397 58.8507 157.631 59.0492 156.855 59.4461C156.098 59.8242 155.361 60.3346 154.641 60.9773C153.941 61.6011 153.279 62.2911 152.655 63.0473C152.049 63.8034 151.519 64.569 151.065 65.344C150.611 66.1002 150.252 66.7996 149.987 67.4423C149.627 68.293 149.343 69.172 149.135 70.0794C148.946 70.9679 148.851 71.8752 148.851 72.8015C148.851 73.8979 149.003 74.9282 149.306 75.8923C149.627 76.8374 150.157 77.603 150.895 78.189C151.633 78.7561 152.626 79.0397 153.875 79.0397H154.159C155.029 79.0397 155.9 78.7845 156.77 78.2741C157.641 77.7448 158.473 77.0737 159.268 76.2609C160.063 75.448 160.772 74.6163 161.397 73.7656C162.04 72.896 162.57 72.121 162.986 71.4405C163.251 71.0057 163.478 70.5709 163.667 70.1361C163.875 69.6824 164.093 69.2382 164.32 68.8034C164.358 68.7467 164.405 68.6805 164.462 68.6049C164.519 68.5293 164.585 68.4915 164.661 68.4915C164.698 68.6049 164.717 68.6994 164.717 68.775C164.717 68.8885 164.698 68.983 164.661 69.0586C164.415 69.8147 164.027 70.6654 163.497 71.6106C162.967 72.5558 162.333 73.5104 161.595 74.4745C160.857 75.4386 160.053 76.3365 159.183 77.1682C158.331 77.9811 157.442 78.6333 156.515 79.1248C155.606 79.6352 154.717 79.8904 153.847 79.8904Z" stroke="#FFC93E" stroke-width="0.4" mask="url(#path-1-outside-1_5819_1245)"/>
<path d="M166.875 78.7845C166.515 78.7845 166.213 78.6522 165.967 78.3875C165.74 78.1229 165.56 77.8015 165.427 77.4234C165.295 77.0265 165.2 76.6295 165.144 76.2325C165.106 75.8355 165.087 75.5047 165.087 75.2401C165.087 74.9565 165.115 74.5028 165.172 73.879C165.248 73.2363 165.361 72.5274 165.513 71.7524C165.664 70.9773 165.853 70.2306 166.08 69.5123C166.307 68.775 166.572 68.1607 166.875 67.6692C167.197 67.1777 167.566 66.913 167.982 66.8752C168.039 66.7051 168.124 66.5633 168.237 66.4499C168.351 66.3176 168.502 66.2514 168.691 66.2514C169.07 66.2514 169.401 66.4121 169.685 66.7335C169.969 67.0548 170.205 67.4518 170.394 67.9244C170.584 68.397 170.726 68.8601 170.82 69.3138C170.934 69.7675 170.99 70.1361 170.99 70.4197C170.99 71.2892 170.905 72.1493 170.735 73L170.962 73.0284C171.511 73.0284 171.937 72.9433 172.239 72.7732C172.542 72.603 172.779 72.4423 172.949 72.2911C173.119 72.121 173.261 72.0359 173.375 72.0359C173.488 72.0359 173.545 72.1021 173.545 72.2344C173.545 72.4612 173.422 72.6692 173.176 72.8582C172.949 73.0284 172.665 73.189 172.324 73.3403C171.984 73.4726 171.653 73.5671 171.331 73.6238C171.009 73.6805 170.763 73.69 170.593 73.6522C170.498 74.0491 170.338 74.5406 170.111 75.1266C169.902 75.6938 169.638 76.2609 169.316 76.828C169.013 77.3762 168.654 77.8393 168.237 78.2174C167.821 78.5955 167.367 78.7845 166.875 78.7845ZM169.969 72.4329C170.082 71.7713 170.139 71.1002 170.139 70.4197C170.139 70.2684 170.101 70.0132 170.025 69.6541C169.969 69.276 169.874 68.879 169.742 68.4631C169.628 68.0473 169.486 67.6881 169.316 67.3856C169.146 67.0832 168.966 66.9319 168.777 66.9319C168.682 66.9319 168.606 67.0076 168.55 67.1588C168.512 67.2911 168.483 67.4423 168.464 67.6125C168.464 67.7826 168.464 67.896 168.464 67.9527C168.464 68.7089 168.578 69.5028 168.805 70.3346C169.051 71.1474 169.439 71.8469 169.969 72.4329ZM166.96 78.0473C167.244 78.0473 167.537 77.8582 167.84 77.4801C168.143 77.0832 168.427 76.6106 168.691 76.0624C168.975 75.4953 169.212 74.9565 169.401 74.4461C169.59 73.9357 169.713 73.5577 169.77 73.3119C169.051 72.8204 168.512 72.1588 168.152 71.327C167.812 70.4953 167.641 69.6446 167.641 68.775C167.641 68.397 167.67 68.0378 167.726 67.6975C167.329 68.3781 166.998 69.1815 166.733 70.1077C166.468 71.034 166.27 71.9792 166.137 72.9433C166.024 73.9074 165.967 74.7864 165.967 75.5803C165.967 75.7694 165.986 76.0624 166.024 76.4594C166.08 76.8563 166.184 77.225 166.336 77.5652C166.487 77.8866 166.695 78.0473 166.96 78.0473Z" stroke="#FFC93E" stroke-width="0.4" mask="url(#path-1-outside-1_5819_1245)"/>
<path d="M173.797 78.4442C173.664 78.4442 173.56 78.397 173.485 78.3025C173.428 78.189 173.399 78.0662 173.399 77.9338C173.399 76.8752 173.456 75.8166 173.57 74.758C173.702 73.6805 173.768 72.6125 173.768 71.5539C173.768 71.4405 173.759 71.2231 173.74 70.9017C173.74 70.5614 173.721 70.2023 173.683 69.8242C173.664 69.4272 173.626 69.0775 173.57 68.775C173.532 68.4537 173.475 68.2552 173.399 68.1796C173.324 68.1229 173.248 68.0567 173.172 67.9811C173.116 67.9055 173.087 67.811 173.087 67.6975C173.087 67.5841 173.135 67.4991 173.229 67.4423C173.343 67.3667 173.456 67.3289 173.57 67.3289C173.891 67.3289 174.118 67.4801 174.251 67.7826C174.402 68.0662 174.497 68.4159 174.535 68.8318C174.591 69.2476 174.62 69.6446 174.62 70.0227C174.62 71.7996 174.563 73.586 174.45 75.3819C174.525 75.1739 174.677 74.8053 174.904 74.276C175.131 73.7467 175.405 73.1512 175.727 72.4896C176.048 71.828 176.38 71.1947 176.72 70.5898C177.08 69.966 177.411 69.4556 177.714 69.0586C178.016 68.6427 178.262 68.4348 178.451 68.4348C178.716 68.4348 178.906 68.6049 179.019 68.9452C179.152 69.2665 179.218 69.5312 179.218 69.7391C179.218 70.6087 179.171 71.4783 179.076 72.3478C179 73.2174 178.962 74.0964 178.962 74.9849C178.962 75.0983 178.972 75.3157 178.991 75.6371C179.029 75.9395 179.085 76.2325 179.161 76.5161C179.256 76.7807 179.398 76.913 179.587 76.913C179.738 76.913 179.937 76.7429 180.183 76.4026C180.429 76.0624 180.684 75.6654 180.949 75.2117C181.214 74.7391 181.451 74.2949 181.659 73.879C181.867 73.4631 182.009 73.1701 182.084 73C182.103 72.9622 182.122 72.9244 182.141 72.8866C182.16 72.8299 182.189 72.8015 182.226 72.8015C182.321 72.8015 182.378 72.8771 182.397 73.0284C182.416 73.1607 182.425 73.2457 182.425 73.2836C182.425 73.4726 182.321 73.8034 182.113 74.276C181.905 74.7486 181.64 75.2495 181.318 75.7788C181.015 76.3081 180.694 76.7618 180.353 77.1399C180.031 77.518 179.738 77.707 179.473 77.707C179.095 77.707 178.811 77.5558 178.622 77.2533C178.451 76.9509 178.338 76.6106 178.281 76.2325C178.224 75.8355 178.196 75.5047 178.196 75.2401C178.196 74.6163 178.224 73.9924 178.281 73.3686C178.357 72.7448 178.395 72.121 178.395 71.4972C178.395 71.4405 178.385 71.2987 178.366 71.0718C178.366 70.845 178.357 70.6276 178.338 70.4197C178.319 70.2117 178.272 70.1077 178.196 70.1077C178.007 70.1077 177.761 70.344 177.458 70.8166C177.174 71.2892 176.862 71.8847 176.521 72.603C176.2 73.3214 175.878 74.0681 175.556 74.8431C175.235 75.5992 174.951 76.2798 174.705 76.8847C174.478 77.4896 174.317 77.896 174.223 78.104C174.185 78.1796 174.128 78.2552 174.052 78.3308C173.995 78.4064 173.91 78.4442 173.797 78.4442Z" stroke="#FFC93E" stroke-width="0.4" mask="url(#path-1-outside-1_5819_1245)"/>
<path d="M183.621 88C183.224 88 182.883 87.7921 182.599 87.3762C182.334 86.9603 182.117 86.4121 181.946 85.7316C181.776 85.051 181.634 84.3138 181.521 83.5198C181.426 82.7448 181.36 81.9697 181.322 81.1947C181.284 80.4386 181.256 79.758 181.237 79.1531C181.237 78.5671 181.237 78.1418 181.237 77.8771C180.915 77.6125 180.754 77.2911 180.754 76.913C180.754 76.7618 180.802 76.6295 180.896 76.5161C180.991 76.3837 181.123 76.3176 181.294 76.3176C181.331 75.5803 181.398 74.8431 181.492 74.1059C181.587 73.3686 181.681 72.6408 181.776 71.9225C181.814 71.62 181.908 71.0813 182.06 70.3062C182.23 69.5123 182.438 68.5955 182.684 67.5558C182.949 66.4972 183.242 65.4197 183.564 64.3232C183.886 63.2079 184.217 62.1777 184.557 61.2325C184.917 60.2684 185.277 59.4934 185.636 58.9074C185.996 58.3025 186.336 58 186.658 58C187.017 58 187.292 58.1701 187.481 58.5104C187.67 58.8507 187.803 59.2382 187.878 59.673C187.954 60.0888 187.992 60.4291 187.992 60.6938C187.992 60.9395 187.973 61.1853 187.935 61.431C187.916 61.6768 187.888 61.9225 187.85 62.1682C187.736 62.7354 187.594 63.3025 187.424 63.8696C187.273 64.4178 187.093 64.966 186.885 65.5142C186.809 65.7221 186.667 66.0624 186.459 66.535C186.251 67.0076 185.996 67.5369 185.693 68.1229C185.39 68.69 185.068 69.2476 184.728 69.7958C184.406 70.3251 184.075 70.7694 183.734 71.1285C183.413 71.4688 183.119 71.6389 182.855 71.6389C182.722 72.4896 182.571 73.3308 182.4 74.1626C182.249 74.9754 182.173 75.8261 182.173 76.7146C182.363 76.8469 182.533 76.9887 182.684 77.1399C182.855 77.2911 183.006 77.4518 183.138 77.6219C183.611 77.5841 184.075 77.4234 184.529 77.1399C184.983 76.8374 185.409 76.4877 185.806 76.0907C186.204 75.6749 186.563 75.2684 186.885 74.8715C187.225 74.4745 187.5 74.1437 187.708 73.879C187.935 73.5955 188.086 73.4537 188.162 73.4537C188.2 73.4537 188.228 73.482 188.247 73.5387C188.266 73.5766 188.276 73.6144 188.276 73.6522C188.276 73.9546 188.086 74.3516 187.708 74.8431C187.348 75.3157 186.904 75.8072 186.374 76.3176C185.844 76.8091 185.324 77.2439 184.813 77.6219C184.321 78 183.943 78.2363 183.678 78.3308C184.283 79.1626 184.699 80.0605 184.926 81.0246C185.172 81.9887 185.295 82.9811 185.295 84.0019C185.295 84.2854 185.277 84.6446 185.239 85.0794C185.22 85.5142 185.154 85.9584 185.04 86.4121C184.945 86.8658 184.785 87.2439 184.557 87.5463C184.33 87.8488 184.018 88 183.621 88ZM183.053 70.448C183.356 70.3535 183.678 70.0699 184.018 69.5974C184.359 69.1248 184.69 68.5577 185.012 67.896C185.333 67.2344 185.627 66.5539 185.891 65.8544C186.156 65.1361 186.374 64.4839 186.544 63.8979C186.733 63.293 186.856 62.8393 186.913 62.5369C186.989 62.1588 187.055 61.7713 187.112 61.3743C187.169 60.9773 187.197 60.5898 187.197 60.2117C187.197 60.0983 187.178 59.9187 187.14 59.673C187.121 59.4083 187.008 59.276 186.8 59.276C186.743 59.276 186.667 59.2949 186.573 59.3327C186.497 59.3705 186.44 59.4083 186.402 59.4461C186.005 60.1267 185.617 60.9395 185.239 61.8847C184.879 62.811 184.548 63.7939 184.245 64.8336C183.943 65.8544 183.687 66.8563 183.479 67.8393C183.271 68.8223 183.129 69.6919 183.053 70.448ZM183.678 87.2628C183.924 87.2628 184.103 87.121 184.217 86.8374C184.33 86.5539 184.397 86.2325 184.416 85.8733C184.453 85.5142 184.472 85.2117 184.472 84.966C184.472 84.2098 184.425 83.4442 184.33 82.6692C184.255 81.8941 184.084 81.138 183.82 80.4008C183.574 79.6824 183.186 79.0397 182.656 78.4726L182.145 78.3592C182.145 78.5293 182.145 78.8601 182.145 79.3516C182.164 79.862 182.192 80.448 182.23 81.1096C182.268 81.7902 182.325 82.4801 182.4 83.1796C182.476 83.8979 182.571 84.5595 182.684 85.1645C182.798 85.7883 182.93 86.2892 183.082 86.6673C183.252 87.0643 183.451 87.2628 183.678 87.2628Z" stroke="#FFC93E" stroke-width="0.4" mask="url(#path-1-outside-1_5819_1245)"/>
</svg>
