<svg width="49" height="48" viewBox="0 0 49 48" fill="none" xmlns="http://www.w3.org/2000/svg">
<path d="M47.7945 24C47.7945 36.9758 37.2101 47.5 24.1472 47.5C11.0843 47.5 0.5 36.9758 0.5 24C0.5 11.0242 11.0843 0.5 24.1472 0.5C37.2101 0.5 47.7945 11.0242 47.7945 24Z" fill="#FFF9EB" stroke="#FFC93E"/>
<g clip-path="url(#clip0_4320_5105)">
<path d="M32.0245 21.2969L21.999 34.7969C21.9522 34.8599 21.8912 34.9111 21.8209 34.9463C21.7506 34.9816 21.6729 35 21.5942 35C21.5278 35.0002 21.4622 34.9871 21.4011 34.9615C21.2971 34.9187 21.2106 34.8424 21.1555 34.7449C21.1003 34.6474 21.0797 34.5344 21.097 34.4239L22.4809 25.5H16.5276C16.4345 25.5 16.3433 25.4743 16.264 25.4259C16.1847 25.3774 16.1205 25.308 16.0785 25.2254C16.0366 25.1428 16.0185 25.0502 16.0263 24.958C16.0341 24.8658 16.0675 24.7776 16.1228 24.7032L26.1483 11.2032C26.2151 11.1132 26.3103 11.0481 26.4187 11.0182C26.5271 10.9883 26.6425 10.9954 26.7463 11.0384C26.8502 11.0813 26.9366 11.1577 26.9917 11.2551C27.0468 11.3526 27.0674 11.4657 27.0503 11.5762L25.6663 20.5H31.6196C31.7127 20.5 31.804 20.5257 31.8833 20.5742C31.9626 20.6227 32.0268 20.6921 32.0688 20.7747C32.1107 20.8573 32.1288 20.9498 32.121 21.042C32.1131 21.1342 32.0797 21.2225 32.0245 21.2969Z" fill="#FFC93E"/>
</g>
<defs>
<clipPath id="clip0_4320_5105">
<rect width="24.1472" height="24" fill="white" transform="translate(12 11)"/>
</clipPath>
</defs>
</svg>
