<svg width="15" height="14" viewBox="0 0 15 14" fill="none" xmlns="http://www.w3.org/2000/svg">
<path fill-rule="evenodd" clip-rule="evenodd" d="M7.4006 0C3.5345 0 0.400604 3.1388 0.400604 7.0119C0.400604 10.1094 2.4061 12.7379 5.1879 13.6647C5.5379 13.7291 5.6653 13.5128 5.6653 13.3266C5.6653 13.1607 5.6597 12.719 5.6562 12.1345C3.7088 12.558 3.2979 11.1944 3.2979 11.1944C2.9801 10.3838 2.5209 10.1682 2.5209 10.1682C1.8853 9.7342 2.5692 9.7426 2.5692 9.7426C3.2713 9.7916 3.6409 10.465 3.6409 10.465C4.2653 11.536 5.2796 11.2266 5.6779 11.0474C5.7423 10.5945 5.9229 10.2858 6.1231 10.1108C4.5691 9.9337 2.9346 9.3317 2.9346 6.6451C2.9346 5.88 3.2076 5.2535 3.6549 4.7635C3.5828 4.5864 3.3427 3.8731 3.7235 2.9085C3.7235 2.9085 4.3115 2.7195 5.6485 3.6267C6.21954 3.47096 6.80871 3.39164 7.4006 3.3908C7.9956 3.3936 8.5941 3.4713 9.1534 3.6267C10.4897 2.7195 11.0763 2.9078 11.0763 2.9078C11.4585 3.8731 11.2177 4.5864 11.1463 4.7635C11.5943 5.2535 11.8659 5.88 11.8659 6.6451C11.8659 9.3387 10.2286 9.9316 8.6697 10.1052C8.921 10.3215 9.1443 10.7492 9.1443 11.4037C9.1443 12.3403 9.1359 13.097 9.1359 13.3266C9.1359 13.5142 9.2619 13.7326 9.6175 13.664C11.0114 13.1965 12.2231 12.3027 13.0814 11.109C13.9397 9.91535 14.4012 8.48212 14.4006 7.0119C14.4006 3.1388 11.266 0 7.4006 0Z" fill="#CDCDCD"/>
</svg>
