<svg width="15" height="14" viewBox="0 0 15 14" fill="none" xmlns="http://www.w3.org/2000/svg">
<path fill-rule="evenodd" clip-rule="evenodd" d="M7.4006 0C3.53618 0 0.400604 3.13558 0.400604 7C0.400604 10.8644 3.53618 14 7.4006 14C11.2574 14 14.4006 10.8644 14.4006 7C14.4006 3.13558 11.2574 0 7.4006 0ZM12.0242 3.22668C12.8594 4.24403 13.3605 5.54229 13.3757 6.94684C13.1783 6.90891 11.2043 6.5065 9.21514 6.75706C9.16959 6.65836 9.13162 6.55204 9.08607 6.44578C8.96458 6.15729 8.82795 5.86119 8.69127 5.58027C10.893 4.6844 11.8952 3.39371 12.0242 3.22668ZM7.4006 1.03254C8.91904 1.03254 10.3084 1.60195 11.3637 2.53579C11.2574 2.68764 10.3539 3.8948 8.22814 4.69197C7.24875 2.89262 6.16309 1.41974 5.99605 1.19197C6.44397 1.08568 6.91472 1.03254 7.4006 1.03254ZM4.85724 1.59436C5.01667 1.80694 6.07957 3.28742 7.07414 5.04879C4.28021 5.79285 1.81275 5.77767 1.54702 5.77767C1.93423 3.92516 3.18694 2.38395 4.85724 1.59436ZM1.41796 7.00761C1.41796 6.94684 1.41796 6.88612 1.41796 6.82539C1.67609 6.83296 4.57631 6.87094 7.56003 5.97507C7.73468 6.3091 7.8941 6.65074 8.04596 6.99239C7.97001 7.01518 7.88649 7.03797 7.81059 7.06072C4.72815 8.05529 3.08824 10.7733 2.95158 11.0011C2.00255 9.94578 1.41796 8.54123 1.41796 7.00761ZM7.4006 12.9826C6.0188 12.9826 4.74334 12.5119 3.73358 11.7223C3.83987 11.5022 5.0546 9.16379 8.42554 7.987C8.44072 7.97939 8.44833 7.97939 8.46351 7.97182C9.30622 10.1507 9.64791 11.9805 9.739 12.5043C9.01774 12.8156 8.22814 12.9826 7.4006 12.9826ZM10.7336 11.9577C10.6728 11.5933 10.3539 9.84708 9.57196 7.69847C11.4473 7.40237 13.0871 7.8883 13.2922 7.95664C13.034 9.61931 12.0774 11.0542 10.7336 11.9577Z" fill="#CDCDCD"/>
</svg>
