<svg width="15" height="14" viewBox="0 0 15 14" fill="none" xmlns="http://www.w3.org/2000/svg">
<path d="M13.3643 0H1.4342C0.862714 0 0.400604 0.451172 0.400604 1.00898V12.9883C0.400604 13.5461 0.862714 14 1.4342 14H13.3643C13.9358 14 14.4006 13.5461 14.4006 12.991V1.00898C14.4006 0.451172 13.9358 0 13.3643 0ZM4.55412 11.9301H2.47599V5.24726H4.55412V11.9301ZM3.51506 4.33672C2.84787 4.33672 2.3092 3.79805 2.3092 3.13359C2.3092 2.46914 2.84787 1.93047 3.51506 1.93047C4.17951 1.93047 4.71818 2.46914 4.71818 3.13359C4.71818 3.79531 4.17951 4.33672 3.51506 4.33672ZM12.3307 11.9301H10.2553V8.68164C10.2553 7.90781 10.2416 6.90977 9.17521 6.90977C8.09513 6.90977 7.93107 7.75469 7.93107 8.62695V11.9301H5.85842V5.24726H7.84904V6.16055H7.87638C8.15256 5.63555 8.83068 5.08047 9.83967 5.08047C11.9424 5.08047 12.3307 6.46406 12.3307 8.26328V11.9301Z" fill="#CDCDCD"/>
</svg>
