<svg width="15" height="14" viewBox="0 0 15 14" fill="none" xmlns="http://www.w3.org/2000/svg">
<g clip-path="url(#clip0_5807_9776)">
<path d="M4.80486 12.6875C10.0866 12.6875 12.9763 8.31061 12.9763 4.51612C12.9763 4.39307 12.9735 4.26729 12.9681 4.14424C13.5302 3.73772 14.0153 3.23418 14.4006 2.65729C13.8771 2.89021 13.3212 3.04234 12.752 3.10846C13.3514 2.74923 13.8001 2.18489 14.0151 1.52006C13.4513 1.85419 12.8347 2.08989 12.1918 2.21705C11.7586 1.75677 11.1858 1.45202 10.5621 1.34989C9.93833 1.24777 9.2983 1.35398 8.74095 1.65209C8.18361 1.9502 7.73999 2.42361 7.47868 2.99913C7.21738 3.57465 7.15294 4.22022 7.29533 4.83604C6.15372 4.77875 5.0369 4.48219 4.01726 3.96559C2.99762 3.44898 2.09793 2.72387 1.3765 1.83725C1.00984 2.46942 0.897637 3.21749 1.06271 3.92942C1.22777 4.64134 1.65772 5.26371 2.26517 5.67002C1.80914 5.65554 1.36309 5.53276 0.963885 5.31182V5.34737C0.963477 6.01078 1.19283 6.65387 1.61295 7.16731C2.03308 7.68075 2.61804 8.03286 3.26842 8.16377C2.84597 8.27936 2.40259 8.2962 1.9726 8.21299C2.15612 8.78353 2.51319 9.28255 2.99397 9.64039C3.47475 9.99823 4.05526 10.197 4.65447 10.2091C3.63718 11.0082 2.38054 11.4416 1.08693 11.4396C0.857522 11.4392 0.628337 11.4251 0.400604 11.3974C1.71477 12.2406 3.2435 12.6883 4.80486 12.6875Z" fill="#CDCDCD"/>
</g>
<defs>
<clipPath id="clip0_5807_9776">
<rect width="14" height="14" fill="white" transform="translate(0.400604)"/>
</clipPath>
</defs>
</svg>
